<svg data-v-423bf9ae="" xmlns="http://www.w3.org/2000/svg" viewBox="0 0 798 295" class="iconLeft"><!----><!----><!----><g data-v-423bf9ae="" id="09d18cd0-7db6-45bf-bb60-7bd94bac3511" fill="white" transform="matrix(4.184100373888211,0,0,4.184100373888211,365.9601529564555,104.24460629996473)"><path d="M0.07 6.57L0.07 3.74L0.28 3.56L1.58 3.74L6.97 3.74L8.27 3.56L8.48 3.74L8.48 6.57L8.20 6.57L7.35 4.48L4.97 4.39L4.97 13.05L6.23 13.54L6.23 13.82L2.52 13.82L2.52 13.54L3.71 13.05L3.71 4.39L1.24 4.50L0.35 6.57L0.07 6.57ZM11.49 13.05L12.68 13.54L12.68 13.82L8.97 13.82L8.97 13.54L10.23 13.05L10.23 4.42L8.97 3.92L8.97 3.64L11.35 3.15L11.49 3.29L11.49 7.62L11.49 7.62Q11.97 7.17 12.62 6.91L12.62 6.91L12.62 6.91Q13.27 6.65 13.90 6.65L13.90 6.65L13.90 6.65Q14.82 6.65 15.43 7.21L15.43 7.21L15.43 7.21Q16.03 7.77 16.03 8.88L16.03 8.88L16.03 13.05L17.29 13.54L17.29 13.82L13.58 13.82L13.58 13.54L14.77 13.05L14.77 9.30L14.77 9.30Q14.77 8.31 14.42 7.93L14.42 7.93L14.42 7.93Q14.07 7.55 13.21 7.55L13.21 7.55L13.21 7.55Q12.20 7.55 11.49 8.16L11.49 8.16L11.49 13.05ZM20.58 13.05L21.84 13.54L21.84 13.82L18.06 13.82L18.06 13.54L19.32 13.05L19.32 7.92L18.06 7.42L18.06 7.14L20.44 6.65L20.58 6.79L20.58 13.05ZM18.86 4.59L18.86 4.59L18.86 4.59Q18.86 4.24 19.11 3.99L19.11 3.99L19.11 3.99Q19.36 3.74 19.73 3.74L19.73 3.74L19.73 3.74Q20.08 3.74 20.33 3.99L20.33 3.99L20.33 3.99Q20.58 4.24 20.58 4.59L20.58 4.59L20.58 4.59Q20.58 4.96 20.33 5.21L20.33 5.21L20.33 5.21Q20.08 5.46 19.73 5.46L19.73 5.46L19.73 5.46Q19.36 5.46 19.11 5.21L19.11 5.21L19.11 5.21Q18.86 4.96 18.86 4.59ZM28.21 12.87L29.47 13.22L29.47 13.47L27.99 13.93L27.99 13.93Q27.55 14.03 27.25 13.83L27.25 13.83L27.25 13.83Q26.95 13.64 26.95 13.17L26.95 13.17L26.95 13.17Q26.06 13.99 24.86 13.99L24.86 13.99L24.86 13.99Q23.87 13.99 23.38 13.48L23.38 13.48L23.38 13.48Q22.89 12.97 22.89 12.20L22.89 12.20L22.89 12.20Q22.89 11.61 23.15 11.17L23.15 11.17L23.15 11.17Q23.41 10.72 23.81 10.45L23.81 10.45L23.81 10.45Q24.21 10.19 24.77 10.01L24.77 10.01L24.77 10.01Q25.33 9.83 25.85 9.76L25.85 9.76L25.85 9.76Q26.37 9.69 26.95 9.68L26.95 9.68L26.95 9.02L26.95 9.02Q26.95 8.07 26.65 7.69L26.65 7.69L26.65 7.69Q26.35 7.31 25.65 7.31L25.65 7.31L25.65 7.31Q25.12 7.31 24.41 7.48L24.41 7.48L23.69 9.06L23.35 9.06L23.35 7.12L23.35 7.12Q23.97 6.90 24.65 6.77L24.65 6.77L24.65 6.77Q25.33 6.65 25.85 6.65L25.85 6.65L25.85 6.65Q26.98 6.65 27.59 7.11L27.59 7.11L27.59 7.11Q28.21 7.56 28.21 8.60L28.21 8.60L28.21 12.87ZM25.44 13.19L25.44 13.19L25.44 13.19Q25.83 13.19 26.24 13.01L26.24 13.01L26.24 13.01Q26.65 12.82 26.95 12.49L26.95 12.49L26.95 10.24L26.95 10.24Q25.58 10.30 24.86 10.80L24.86 10.80L24.86 10.80Q24.14 11.29 24.14 12.06L24.14 12.06L24.14 12.06Q24.14 12.65 24.52 12.92L24.52 12.92L24.52 12.92Q24.90 13.19 25.44 13.19ZM32.29 14.09L32.29 14.09L32.29 14.09Q31.62 14.50 31.62 15.39L31.62 15.39L31.62 15.39Q31.62 15.79 31.82 16.06L31.82 16.06L31.82 16.06Q32.02 16.33 32.33 16.49L32.33 16.49L32.33 16.49Q32.63 16.65 33.01 16.72L33.01 16.72L33.01 16.72Q33.39 16.79 33.74 16.79L33.74 16.79L33.74 16.79Q34.10 16.79 34.46 16.72L34.46 16.72L34.46 16.72Q34.83 16.65 35.12 16.51L35.12 16.51L35.12 16.51Q35.41 16.37 35.59 16.16L35.59 16.16L35.59 16.16Q35.78 15.95 35.78 15.67L35.78 15.67L35.78 15.67Q35.78 15.24 35.56 14.98L35.56 14.98L35.56 14.98Q35.35 14.72 34.98 14.56L34.98 14.56L34.98 14.56Q34.61 14.41 34.11 14.33L34.11 14.33L34.11 14.33Q33.61 14.26 33.04 14.20L33.04 14.20L33.04 14.20Q32.81 14.17 32.62 14.14L32.62 14.14L32.62 14.14Q32.43 14.12 32.29 14.09ZM33.67 11.92L33.67 11.92L33.67 11.92Q32.96 11.92 32.38 11.70L32.38 11.70L32.38 11.70Q31.94 11.98 31.94 12.42L31.94 12.42L31.94 12.42Q31.94 12.67 32.23 12.82L32.23 12.82L32.23 12.82Q32.53 12.97 32.99 13.04L32.99 13.04L32.99 13.04Q33.46 13.10 34.02 13.16L34.02 13.16L34.02 13.16Q34.58 13.21 35.14 13.33L35.14 13.33L35.14 13.33Q35.70 13.45 36.16 13.65L36.16 13.65L36.16 13.65Q36.63 13.85 36.92 14.26L36.92 14.26L36.92 14.26Q37.21 14.66 37.21 15.25L37.21 15.25L37.21 15.25Q37.21 15.72 36.98 16.11L36.98 16.11L36.98 16.11Q36.76 16.50 36.39 16.75L36.39 16.75L36.39 16.75Q36.03 17.00 35.53 17.17L35.53 17.17L35.53 17.17Q35.04 17.34 34.53 17.42L34.53 17.42L34.53 17.42Q34.02 17.49 33.50 17.49L33.50 17.49L33.50 17.49Q32.03 17.49 31.20 16.98L31.20 16.98L31.20 16.98Q30.37 16.47 30.37 15.65L30.37 15.65L30.37 15.65Q30.37 14.47 31.68 13.93L31.68 13.93L31.68 13.93Q30.86 13.66 30.86 12.91L30.86 12.91L30.86 12.91Q30.86 12.04 31.93 11.46L31.93 11.46L31.93 11.46Q31.34 11.09 31.02 10.51L31.02 10.51L31.02 10.51Q30.70 9.93 30.70 9.28L30.70 9.28L30.70 9.28Q30.70 8.78 30.90 8.32L30.90 8.32L30.90 8.32Q31.10 7.85 31.46 7.48L31.46 7.48L31.46 7.48Q31.83 7.10 32.40 6.88L32.40 6.88L32.40 6.88Q32.98 6.65 33.67 6.65L33.67 6.65L33.67 6.65Q34.27 6.65 34.77 6.82L34.77 6.82L37.52 6.82L37.52 7.10L36.02 7.64L36.02 7.64Q36.63 8.35 36.63 9.28L36.63 9.28L36.63 9.28Q36.63 9.78 36.43 10.25L36.43 10.25L36.43 10.25Q36.23 10.72 35.86 11.09L35.86 11.09L35.86 11.09Q35.50 11.46 34.93 11.69L34.93 11.69L34.93 11.69Q34.36 11.92 33.67 11.92ZM32.12 9.28L32.12 9.28L32.12 9.28Q32.12 10.22 32.53 10.72L32.53 10.72L32.53 10.72Q32.94 11.22 33.67 11.22L33.67 11.22L33.67 11.22Q34.38 11.22 34.79 10.72L34.79 10.72L34.79 10.72Q35.21 10.21 35.21 9.28L35.21 9.28L35.21 9.28Q35.21 8.35 34.79 7.85L34.79 7.85L34.79 7.85Q34.38 7.36 33.67 7.36L33.67 7.36L33.67 7.36Q32.94 7.36 32.53 7.85L32.53 7.85L32.53 7.85Q32.12 8.35 32.12 9.28ZM41.71 6.65L41.71 6.65L41.71 6.65Q42.49 6.65 43.11 6.92L43.11 6.92L43.11 6.92Q43.73 7.18 44.16 7.67L44.16 7.67L44.16 7.67Q44.59 8.15 44.82 8.83L44.82 8.83L44.82 8.83Q45.05 9.50 45.05 10.32L45.05 10.32L45.05 10.32Q45.05 11.14 44.82 11.81L44.82 11.81L44.82 11.81Q44.60 12.49 44.17 12.97L44.17 12.97L44.17 12.97Q43.74 13.46 43.11 13.73L43.11 13.73L43.11 13.73Q42.49 13.99 41.71 13.99L41.71 13.99L41.71 13.99Q40.91 13.99 40.29 13.73L40.29 13.73L40.29 13.73Q39.67 13.46 39.24 12.97L39.24 12.97L39.24 12.97Q38.81 12.49 38.58 11.82L38.58 11.82L38.58 11.82Q38.36 11.14 38.36 10.32L38.36 10.32L38.36 10.32Q38.36 9.50 38.59 8.83L38.59 8.83L38.59 8.83Q38.81 8.15 39.25 7.67L39.25 7.67L39.25 7.67Q39.68 7.18 40.30 6.92L40.30 6.92L40.30 6.92Q40.92 6.65 41.71 6.65ZM40.22 8.10L40.22 8.10L40.22 8.10Q39.69 8.96 39.69 10.32L39.69 10.32L39.69 10.32Q39.69 11.00 39.82 11.56L39.82 11.56L39.82 11.56Q39.96 12.13 40.21 12.53L40.21 12.53L40.21 12.53Q40.47 12.94 40.84 13.17L40.84 13.17L40.84 13.17Q41.22 13.39 41.71 13.39L41.71 13.39L41.71 13.39Q42.19 13.39 42.57 13.17L42.57 13.17L42.57 13.17Q42.96 12.94 43.22 12.53L43.22 12.53L43.22 12.53Q43.48 12.13 43.62 11.56L43.62 11.56L43.62 11.56Q43.76 11.00 43.76 10.32L43.76 10.32L43.76 10.32Q43.76 9.65 43.62 9.09L43.62 9.09L43.62 9.09Q43.48 8.52 43.22 8.12L43.22 8.12L43.22 8.12Q42.96 7.71 42.57 7.48L42.57 7.48L42.57 7.48Q42.19 7.25 41.71 7.25L41.71 7.25L41.71 7.25Q40.74 7.25 40.22 8.10ZM58.60 6.11L58.60 6.11L58.60 6.11Q58.60 6.92 58.16 7.49L58.16 7.49L58.16 7.49Q57.72 8.05 56.98 8.37L56.98 8.37L56.98 8.45L56.98 8.45Q58.02 8.76 58.60 9.42L58.60 9.42L58.60 9.42Q59.19 10.08 59.19 11.02L59.19 11.02L59.19 11.02Q59.19 12.34 58.22 13.08L58.22 13.08L58.22 13.08Q57.26 13.82 55.46 13.82L55.46 13.82L51.21 13.82L51.21 13.54L52.47 13.05L52.47 4.51L51.21 4.02L51.21 3.74L54.97 3.74L54.97 3.74Q56.89 3.74 57.74 4.35L57.74 4.35L57.74 4.35Q58.60 4.97 58.60 6.11ZM55.64 8.84L53.80 8.84L53.80 13.10L55.64 13.10L55.64 13.10Q56.32 13.10 56.81 12.78L56.81 12.78L56.81 12.78Q57.30 12.46 57.52 11.99L57.52 11.99L57.52 11.99Q57.74 11.53 57.74 10.99L57.74 10.99L57.74 10.99Q57.74 10.60 57.61 10.22L57.61 10.22L57.61 10.22Q57.47 9.84 57.22 9.53L57.22 9.53L57.22 9.53Q56.96 9.22 56.55 9.03L56.55 9.03L56.55 9.03Q56.14 8.84 55.64 8.84L55.64 8.84ZM53.80 4.47L53.80 8.11L55.32 8.11L55.32 8.11Q56.24 8.11 56.71 7.57L56.71 7.57L56.71 7.57Q57.18 7.03 57.18 6.22L57.18 6.22L57.18 6.22Q57.18 5.38 56.71 4.93L56.71 4.93L56.71 4.93Q56.25 4.47 55.17 4.47L55.17 4.47L53.80 4.47ZM66.34 10.17L66.14 10.36L61.72 10.36L61.72 10.36Q61.73 11.13 61.94 11.70L61.94 11.70L61.94 11.70Q62.15 12.26 62.51 12.58L62.51 12.58L62.51 12.58Q62.88 12.91 63.31 13.06L63.31 13.06L63.31 13.06Q63.75 13.21 64.26 13.21L64.26 13.21L64.26 13.21Q64.97 13.21 65.78 12.73L65.78 12.73L65.99 13.14L65.99 13.14Q65.42 13.64 64.85 13.82L64.85 13.82L64.85 13.82Q64.27 13.99 63.54 13.99L63.54 13.99L63.54 13.99Q62.90 13.99 62.32 13.72L62.32 13.72L62.32 13.72Q61.73 13.45 61.28 12.98L61.28 12.98L61.28 12.98Q60.84 12.50 60.57 11.81L60.57 11.81L60.57 11.81Q60.31 11.12 60.31 10.32L60.31 10.32L60.31 10.32Q60.31 9.56 60.50 8.94L60.50 8.94L60.50 8.94Q60.70 8.31 61.02 7.90L61.02 7.90L61.02 7.90Q61.34 7.48 61.77 7.19L61.77 7.19L61.77 7.19Q62.19 6.90 62.64 6.78L62.64 6.78L62.64 6.78Q63.09 6.65 63.55 6.65L63.55 6.65L63.55 6.65Q64.13 6.65 64.63 6.87L64.63 6.87L64.63 6.87Q65.13 7.08 65.51 7.50L65.51 7.50L65.51 7.50Q65.90 7.92 66.12 8.61L66.12 8.61L66.12 8.61Q66.34 9.29 66.34 10.17L66.34 10.17ZM63.58 7.31L63.58 7.31L63.58 7.31Q62.79 7.31 62.33 7.94L62.33 7.94L62.33 7.94Q61.86 8.56 61.75 9.64L61.75 9.64L65.01 9.64L65.01 9.64Q65.01 8.54 64.64 7.93L64.64 7.93L64.64 7.93Q64.27 7.31 63.58 7.31ZM69.84 13.05L71.10 13.54L71.10 13.82L67.32 13.82L67.32 13.54L68.58 13.05L68.58 4.42L67.32 3.92L67.32 3.64L69.71 3.15L69.84 3.29L69.84 13.05ZM74.60 13.05L75.86 13.54L75.86 13.82L72.08 13.82L72.08 13.54L73.34 13.05L73.34 4.42L72.08 3.92L72.08 3.64L74.46 3.15L74.60 3.29L74.60 13.05ZM80.40 6.65L80.40 6.65L80.40 6.65Q81.18 6.65 81.80 6.92L81.80 6.92L81.80 6.92Q82.42 7.18 82.85 7.67L82.85 7.67L82.85 7.67Q83.28 8.15 83.51 8.83L83.51 8.83L83.51 8.83Q83.74 9.50 83.74 10.32L83.74 10.32L83.74 10.32Q83.74 11.14 83.51 11.81L83.51 11.81L83.51 11.81Q83.29 12.49 82.86 12.97L82.86 12.97L82.86 12.97Q82.43 13.46 81.81 13.73L81.81 13.73L81.81 13.73Q81.18 13.99 80.40 13.99L80.40 13.99L80.40 13.99Q79.60 13.99 78.98 13.73L78.98 13.73L78.98 13.73Q78.36 13.46 77.93 12.97L77.93 12.97L77.93 12.97Q77.50 12.49 77.27 11.82L77.27 11.82L77.27 11.82Q77.05 11.14 77.05 10.32L77.05 10.32L77.05 10.32Q77.05 9.50 77.28 8.83L77.28 8.83L77.28 8.83Q77.51 8.15 77.94 7.67L77.94 7.67L77.94 7.67Q78.37 7.18 78.99 6.92L78.99 6.92L78.99 6.92Q79.61 6.65 80.40 6.65ZM78.91 8.10L78.91 8.10L78.91 8.10Q78.38 8.96 78.38 10.32L78.38 10.32L78.38 10.32Q78.38 11.00 78.51 11.56L78.51 11.56L78.51 11.56Q78.65 12.13 78.90 12.53L78.90 12.53L78.90 12.53Q79.16 12.94 79.54 13.17L79.54 13.17L79.54 13.17Q79.91 13.39 80.40 13.39L80.40 13.39L80.40 13.39Q80.88 13.39 81.27 13.17L81.27 13.17L81.27 13.17Q81.65 12.94 81.91 12.53L81.91 12.53L81.91 12.53Q82.17 12.13 82.31 11.56L82.31 11.56L82.31 11.56Q82.46 11.00 82.46 10.32L82.46 10.32L82.46 10.32Q82.46 9.65 82.31 9.09L82.31 9.09L82.31 9.09Q82.17 8.52 81.91 8.12L81.91 8.12L81.91 8.12Q81.65 7.71 81.27 7.48L81.27 7.48L81.27 7.48Q80.88 7.25 80.40 7.25L80.40 7.25L80.40 7.25Q79.43 7.25 78.91 8.10ZM89.34 7.36L87.10 7.77L87.10 11.58L87.10 11.58Q87.10 12.04 87.17 12.36L87.17 12.36L87.17 12.36Q87.24 12.67 87.38 12.83L87.38 12.83L87.38 12.83Q87.52 12.98 87.68 13.04L87.68 13.04L87.68 13.04Q87.83 13.10 88.05 13.10L88.05 13.10L88.05 13.10Q88.46 13.10 88.74 13.03L88.74 13.03L88.74 13.03Q89.02 12.95 89.34 12.76L89.34 12.76L89.55 13.19L89.55 13.19Q88.59 13.99 87.44 13.99L87.44 13.99L87.44 13.99Q86.77 13.99 86.30 13.46L86.30 13.46L86.30 13.46Q85.84 12.93 85.84 11.98L85.84 11.98L85.84 7.77L84.57 7.42L84.57 7.14L85.89 6.86L86.40 4.98L87.10 4.98L87.10 6.86L89.10 6.86L89.34 6.95L89.34 7.36ZM95.04 7.36L92.80 7.77L92.80 11.58L92.80 11.58Q92.80 12.04 92.87 12.36L92.87 12.36L92.87 12.36Q92.94 12.67 93.08 12.83L93.08 12.83L93.08 12.83Q93.22 12.98 93.38 13.04L93.38 13.04L93.38 13.04Q93.54 13.10 93.75 13.10L93.75 13.10L93.75 13.10Q94.17 13.10 94.44 13.03L94.44 13.03L94.44 13.03Q94.72 12.95 95.04 12.76L95.04 12.76L95.25 13.19L95.25 13.19Q94.29 13.99 93.14 13.99L93.14 13.99L93.14 13.99Q92.47 13.99 92.00 13.46L92.00 13.46L92.00 13.46Q91.54 12.93 91.54 11.98L91.54 11.98L91.54 7.77L90.27 7.42L90.27 7.14L91.59 6.86L92.10 4.98L92.80 4.98L92.80 6.86L94.80 6.86L95.04 6.95L95.04 7.36ZM99.75 6.65L99.75 6.65L99.75 6.65Q100.53 6.65 101.15 6.92L101.15 6.92L101.15 6.92Q101.77 7.18 102.20 7.67L102.20 7.67L102.20 7.67Q102.63 8.15 102.86 8.83L102.86 8.83L102.86 8.83Q103.09 9.50 103.09 10.32L103.09 10.32L103.09 10.32Q103.09 11.14 102.87 11.81L102.87 11.81L102.87 11.81Q102.64 12.49 102.21 12.97L102.21 12.97L102.21 12.97Q101.78 13.46 101.16 13.73L101.16 13.73L101.16 13.73Q100.54 13.99 99.75 13.99L99.75 13.99L99.75 13.99Q98.96 13.99 98.33 13.73L98.33 13.73L98.33 13.73Q97.71 13.46 97.28 12.97L97.28 12.97L97.28 12.97Q96.85 12.49 96.63 11.82L96.63 11.82L96.63 11.82Q96.40 11.14 96.40 10.32L96.40 10.32L96.40 10.32Q96.40 9.50 96.63 8.83L96.63 8.83L96.63 8.83Q96.86 8.15 97.29 7.67L97.29 7.67L97.29 7.67Q97.72 7.18 98.34 6.92L98.34 6.92L98.34 6.92Q98.96 6.65 99.75 6.65ZM98.26 8.10L98.26 8.10L98.26 8.10Q97.73 8.96 97.73 10.32L97.73 10.32L97.73 10.32Q97.73 11.00 97.87 11.56L97.87 11.56L97.87 11.56Q98 12.13 98.26 12.53L98.26 12.53L98.26 12.53Q98.51 12.94 98.89 13.17L98.89 13.17L98.89 13.17Q99.26 13.39 99.75 13.39L99.75 13.39L99.75 13.39Q100.24 13.39 100.62 13.17L100.62 13.17L100.62 13.17Q101.00 12.94 101.26 12.53L101.26 12.53L101.26 12.53Q101.53 12.13 101.67 11.56L101.67 11.56L101.67 11.56Q101.81 11.00 101.81 10.32L101.81 10.32L101.81 10.32Q101.81 9.65 101.67 9.09L101.67 9.09L101.67 9.09Q101.53 8.52 101.26 8.12L101.26 8.12L101.26 8.12Q101.00 7.71 100.62 7.48L100.62 7.48L100.62 7.48Q100.24 7.25 99.75 7.25L99.75 7.25L99.75 7.25Q98.78 7.25 98.26 8.10Z"></path></g><!----><g data-v-423bf9ae="" id="599e47f5-a881-4c53-96cd-813f92e20714" transform="matrix(1.8100001017252605,0,0,1.8100001017252605,-58.28951515960702,-84.08952130127)" stroke="none" fill="white"><style></style><path d="M84.5 82.1c9 0 16.4-6.7 17.6-15.4h30.4l13 18.8c.5.7 1.2 1 2 1h73.7c1.3 0 2.4-1.1 2.4-2.4 0-1.3-1.1-2.4-2.4-2.4h-72.5l-13-18.8c-.5-.7-1.2-1-2-1H102c-1.2-8.7-8.6-15.4-17.6-15.4-9.8 0-17.8 8-17.8 17.8s8.1 17.8 17.9 17.8zm0-30.7c7.1 0 12.9 5.8 12.9 12.9 0 7.1-5.8 12.9-12.9 12.9-7.1 0-12.9-5.8-12.9-12.9s5.7-12.9 12.9-12.9zM221.2 109.5h-76.7c-1.2-8.7-8.6-15.4-17.6-15.4-9.8 0-17.8 8-17.8 17.8s8 17.8 17.8 17.8c9 0 16.4-6.7 17.6-15.4h76.7c1.3 0 2.4-1.1 2.4-2.4 0-1.3-1.1-2.4-2.4-2.4zm-94.3 15.4c-7.1 0-12.9-5.8-12.9-12.9s5.8-13 12.9-13c7.1 0 12.9 5.8 12.9 12.9 0 7.2-5.8 13-12.9 13z"></path><path d="M221.2 140.3h-66.9c-.8 0-1.6.4-2.1 1.1l-9.4 15h-41.2l-10.2-19c-.4-.8-1.2-1.3-2.1-1.3H67.7c-1.2-8.7-8.6-15.4-17.6-15.4-9.8 0-17.8 8-17.8 17.8s8 17.8 17.8 17.8c9 0 16.4-6.7 17.6-15.4h20.1l10.2 19c.4.8 1.2 1.3 2.1 1.3h44c.8 0 1.6-.4 2.1-1.1l9.4-15h65.5c1.3 0 2.4-1.1 2.4-2.4.1-1.3-1-2.4-2.3-2.4zM50.1 151.6c-7.1 0-12.9-5.8-12.9-12.9s5.8-12.9 12.9-12.9c7.1 0 12.9 5.8 12.9 12.9.1 7.1-5.7 12.9-12.9 12.9zM221.2 168.6h-38.6c-.9 0-1.7.5-2.1 1.2l-11.4 19.4h-58.2c-1.2-8.7-8.6-15.4-17.6-15.4-9.8 0-17.8 8-17.8 17.8s8 17.8 17.8 17.8c9 0 16.4-6.7 17.6-15.4h59.6c.9 0 1.7-.5 2.1-1.2l11.4-19.4h37.2c1.3 0 2.4-1.1 2.4-2.4 0-1.3-1.1-2.4-2.4-2.4zm-127.9 36c-7.1 0-12.9-5.8-12.9-12.9 0-7.1 5.8-12.9 12.9-12.9 7.1 0 12.9 5.8 12.9 12.9.1 7.1-5.7 12.9-12.9 12.9z"></path></g><!----></svg>